<?xml version="1.0" encoding="utf-8"?>
<svg xmlns="http://www.w3.org/2000/svg" viewBox="0 0 26 26" width="104" height="104">
  <path d="M3 2C1.300781 2 0 3.300781 0 5L0 21C0 22.699219 1.300781 24 3 24L23 24C24.699219 24 26 22.699219 26 21L26 5C26 3.300781 24.699219 2 23 2 Z M 2 7L24 7L24 21C24 21.601563 23.601563 22 23 22L3 22C2.398438 22 2 21.601563 2 21 Z M 14 9L10 20L12 20L16 9 Z M 7.25 10.34375L3.6875 14.5L7.25 18.65625L8.75 17.34375L6.3125 14.5L8.75 11.65625 Z M 18.75 10.34375L17.25 11.65625L19.6875 14.5L17.25 17.34375L18.75 18.65625L22.3125 14.5Z" fill="#FFFFFF" />
</svg>