<?xml version="1.0" encoding="utf-8"?>
<svg xmlns="http://www.w3.org/2000/svg" viewBox="0 0 30 30" width="90" height="90">
  <path d="M14.839844 3C12.080882 3.0290279 9.5234744 3.8164987 7.484375 5.2480469C4.7655758 7.1567778 3 10.250726 3 14C3 15.890402 3.7427044 18.058227 4.3300781 19.595703C4.8808437 21.037213 6.2702957 22 7.8164062 22L7.8183594 22C7.9294628 22 8 22.07054 8 22.181641L8 24.515625C8 25.459552 8.5401993 26.317439 9.3632812 26.746094C10.418158 27.294991 12.310444 28 15 28C17.689556 28 19.581842 27.294991 20.636719 26.746094C21.459801 26.317439 22 25.459552 22 24.515625L22 22.181641C22 22.07054 22.07054 22 22.181641 22L22.1875 22C23.725712 22 25.111813 21.04849 25.666016 19.613281C26.234465 18.141697 26.946424 16.102764 26.996094 14.335938L26.996094 14.333984C27.149523 8.8455537 23.030194 4.1473532 17.654297 3.2285156L17.652344 3.2285156C16.700287 3.0659604 15.758863 2.9903307 14.839844 3 z M 14.861328 5C15.657754 4.9913257 16.479682 5.0562579 17.316406 5.1992188C21.743599 5.955147 25.120606 9.8264066 24.996094 14.279297C24.961764 15.500471 24.336332 17.506162 23.800781 18.892578C23.540984 19.565369 22.907288 20 22.1875 20L22.181641 20C20.988782 20 20 20.988741 20 22.181641L20 24.515625C20 24.709698 19.899809 24.875311 19.712891 24.972656C18.899767 25.395759 17.342444 26 15 26C12.657556 26 11.100233 25.395759 10.287109 24.972656C10.100191 24.875311 10 24.709698 10 24.515625L10 22.181641C10 20.988741 9.0112592 20 7.8183594 20L7.8164062 20C7.0945136 20 6.4584532 19.561303 6.1992188 18.882812C5.6465924 17.436289 5 15.311598 5 14C5 10.863274 6.3986117 8.4532847 8.6328125 6.8847656C10.308463 5.7083764 12.472051 5.0260229 14.861328 5 z M 11.5 12 A 2.5 3 0 0 0 9 15 A 2.5 3 0 0 0 11.5 18 A 2.5 3 0 0 0 14 15 A 2.5 3 0 0 0 11.5 12 z M 18.5 12 A 2.5 3 0 0 0 16 15 A 2.5 3 0 0 0 18.5 18 A 2.5 3 0 0 0 21 15 A 2.5 3 0 0 0 18.5 12 z M 15 17C15 17 14 18.448 14 19C14 19.552 14.448 20 15 20C15.552 20 16 19.552 16 19C16 18.448 15 17 15 17 z M 11.570312 21.185547C11.570312 21.185547 12.249 24 15 24C17.751 24 18.429688 21.185547 18.429688 21.185547C18.429688 21.185547 16.774 22 15 22C13.226 22 11.570312 21.185547 11.570312 21.185547 z" fill="#FFFFFF" />
</svg>