<?xml version="1.0" encoding="utf-8"?>
<svg xmlns="http://www.w3.org/2000/svg" viewBox="0 0 30 30" width="90" height="90">
  <path d="M14.990234 2 A 1.0001 1.0001 0 0 0 14.921875 2.0039062C14.921875 2.0039062 13.676605 2.0606072 12.605469 2.9042969C12.069901 3.326142 11.571075 3.9958568 11.400391 4.8710938C11.304966 5.360412 11.319682 5.9008763 11.427734 6.4863281C10.732464 6.523165 9.8596147 6.5695606 8.7226562 6.7441406C2.2506562 7.8231406 3.0292969 15.392578 3.0292969 15.392578C3.0292969 23.124578 10.640047 26 12.498047 26C13.756047 26 13.816016 25.400391 14.416016 25.400391C15.015016 25.400391 15.674594 26 16.933594 26C21.307594 26 27 22.165688 27 14.554688C27 6.2846875 20.04825 5 17.53125 5C15.28065 5 14.198251 5.7516623 13.390625 6.1289062C13.321915 5.7580913 13.321972 5.46573 13.363281 5.2539062C13.437566 4.8729868 13.60149 4.6658424 13.841797 4.4765625C14.322411 4.0980027 15.078125 3.9960938 15.078125 3.9960938 A 1.0001 1.0001 0 0 0 14.990234 2 z M 19.720703 7.5722656L21.486328 9.9257812L20.310547 11.689453L16.191406 12.277344L19.720703 7.5722656 z M 9.1328125 9.3359375L12.660156 12.277344L8.5449219 12.277344L7.3671875 11.101562L9.1328125 9.3359375 z M 23.251953 10.513672C24.486953 11.689672 25.015625 13.453641 25.015625 15.806641C25.014625 18.159641 23.838 19.925672 23.25 20.513672C23.25 19.925672 22.662109 18.748047 22.662109 18.748047C22.662109 19.924047 22.073375 21.101453 21.484375 21.689453C21.308375 21.101453 20.896484 20.513672 20.896484 20.513672C20.308484 21.689672 19.720703 22.277344 19.720703 22.277344C19.308703 21.630344 18.544922 21.101562 18.544922 21.101562C18.544922 21.983563 17.955078 22.867188 17.955078 22.867188C17.249078 22.396187 16.779297 21.689453 16.779297 21.689453C16.779297 21.689453 16.191406 22.514078 16.191406 23.455078C15.838406 23.043078 15.249672 22.219453 15.013672 21.689453C15.013672 21.689453 14.425781 22.278078 14.425781 23.455078C13.837781 22.984078 12.660156 21.689453 12.660156 21.689453C12.660156 21.689453 12.072266 22.867078 12.072266 23.455078C12.072266 23.455078 11.307484 22.748453 10.896484 21.689453C10.896484 21.689453 10.308594 22.278188 10.308594 22.867188C8.5435937 21.690188 8.5449219 20.513672 8.5449219 20.513672C8.5449219 20.513672 7.9550781 21.102297 7.9550781 22.279297C6.1900781 20.514297 5.015625 18.750594 5.015625 15.808594C5.015625 14.690594 5.6024063 12.867297 6.1914062 12.279297C5.6034062 16.397297 6.7792969 17.572266 6.7792969 17.572266C6.7792969 17.337266 6.7800312 16.396703 7.9570312 15.220703C7.9570312 17.573703 8.5449219 18.748047 8.5449219 18.748047C8.5449219 18.160047 9.1327031 16.984484 9.7207031 16.396484C9.7207031 18.749484 11.486328 19.925781 11.486328 19.925781C11.486328 19.337781 12.073109 18.160266 12.662109 17.572266C12.662109 18.160266 14.427734 20.513672 14.427734 20.513672C14.427734 20.513672 14.427625 18.748266 15.015625 17.572266C15.603625 18.748266 16.78125 19.925781 16.78125 19.925781C16.78125 19.925781 17.369141 18.749375 17.369141 16.984375C17.369141 16.984375 19.134656 18.160781 19.722656 19.925781C19.722656 19.925781 20.898438 18.748641 20.898438 15.806641C20.898438 15.806641 22.074219 16.983156 22.074219 18.160156C22.074219 18.160156 23.250109 15.219969 22.662109 14.042969C22.662109 14.042969 23.839844 15.217531 23.839844 16.394531C23.839844 16.394531 24.427953 14.042672 23.251953 10.513672 z M 12.660156 14.042969L16.191406 14.042969L14.425781 15.806641L12.660156 14.042969 z" fill="#FFFFFF" />
</svg>