<?xml version="1.0" encoding="utf-8"?>
<svg xmlns="http://www.w3.org/2000/svg" viewBox="0 0 48 48" width="480" height="480">
  <circle cx="36" cy="27" r="4" fill="#c2ffff" />
  <circle cx="12" cy="27" r="4" fill="#c2ffff" />
  <path fill="#3ddab4" d="M13,25c-0.352-0.437-0.687,0.48-1.006,0C7.208,17.804,6,5,6,5c5.062,4.5,9-3,18-3s12.375,8,18,3 c0,0-1.208,12.804-5.994,20c-0.319,0.48-0.654-0.438-1.006,0H13z" />
  <path fill="#00b569" d="M12,25c-1-5-1-15,6.24-15C22,10,24,13.612,24,13.612S26,10,29.76,10C37,10,37,21,36,25H12z" />
  <path fill="#c2ffff" d="M29.76,14C26,14,24,19,24,19s-2-5-5.76-5C12,14,12,25,12,25v11l8.51,10H24h3.49L36,37l-0.015-12 C35.985,25,36,14,29.76,14z" />
  <path fill="#f55376" d="M26,32l-2,1l-2-1c-4.587,2.77-8-1-8-1s2.384,10.397,10,12c7.616-1.603,10-12,10-12 S30.587,34.77,26,32z" />
  <path fill="#fff" d="M30,35H18c0,0,1.998,5.009,6,5.012l0,0c0.001,0,0.002,0,0.003,0v0C28.005,40.009,30,35,30,35z" />
  <path fill="#2100c4" d="M31.989,23.001c0.008,0.089,0.026,0.175,0.026,0.266c0,1.505-1.162,2.725-2.595,2.725 c-1.083,0-2.009-0.697-2.398-1.687L31.989,23.001z" />
  <path fill="#2100c4" d="M16.024,23.001c-0.008,0.089-0.026,0.175-0.026,0.266c0,1.505,1.162,2.725,2.595,2.725 c1.083,0,2.009-0.697,2.398-1.687L16.024,23.001z" />
</svg>