<?xml version="1.0" encoding="utf-8"?>
<svg xmlns="http://www.w3.org/2000/svg" viewBox="0 0 26 26" width="104" height="104">
  <path d="M16 0C13.789063 0 11.878906 0.917969 10.6875 2.40625C9.496094 3.894531 9 5.824219 9 7.90625L9 9L12 9L12 7.90625C12 6.328125 12.390625 5.085938 13.03125 4.28125C13.671875 3.476563 14.542969 3 16 3C17.460938 3 18.328125 3.449219 18.96875 4.25C19.609375 5.050781 20 6.308594 20 7.90625L20 9L23 9L23 7.90625C23 5.8125 22.472656 3.863281 21.28125 2.375C20.089844 0.886719 18.207031 0 16 0 Z M 9 10C7.34375 10 6 11.34375 6 13L6 23C6 24.65625 7.34375 26 9 26L23 26C24.65625 26 26 24.65625 26 23L26 13C26 11.34375 24.65625 10 23 10 Z M 16 15C17.105469 15 18 15.894531 18 17C18 17.738281 17.597656 18.371094 17 18.71875L17 21C17 21.550781 16.550781 22 16 22C15.449219 22 15 21.550781 15 21L15 18.71875C14.402344 18.371094 14 17.738281 14 17C14 15.894531 14.894531 15 16 15Z" fill="#FFFFFF" />
</svg>