<?xml version="1.0" encoding="utf-8"?>
<svg xmlns="http://www.w3.org/2000/svg" viewBox="0 0 64 64" width="512" height="512">
  <path d="M6 6L6 8L6 30L30 30L30 6L6 6 z M 34 6L34 8L34 30L58 30L58 6L34 6 z M 10 10L26 10L26 26L10 26L10 10 z M 38 10L54 10L54 26L38 26L38 10 z M 6 34L6 36L6 58L30 58L30 34L6 34 z M 34 34L34 36L34 58L58 58L58 34L34 34 z M 10 38L26 38L26 54L10 54L10 38 z M 38 38L43.878906 38L38 43.878906L38 38 z M 48 38L51.878906 38L38 51.878906L38 48L38.060547 48.060547L48.060547 38.060547L48 38 z M 14 40 A 2 2 0 0 0 14 44 A 2 2 0 0 0 14 40 z M 22 40 A 2 2 0 0 0 22 44 A 2 2 0 0 0 22 40 z M 54 40.121094L54 44L53.939453 43.939453L43.939453 53.939453L44 54L40.121094 54L54 40.121094 z M 18 44 A 2 2 0 0 0 18 48 A 2 2 0 0 0 18 44 z M 14 48 A 2 2 0 0 0 14 52 A 2 2 0 0 0 14 48 z M 22 48 A 2 2 0 0 0 22 52 A 2 2 0 0 0 22 48 z M 54 48.121094L54 54L48.121094 54L54 48.121094 z" fill="#FFFFFF" />
</svg>