<?xml version="1.0" encoding="utf-8"?>
<svg xmlns="http://www.w3.org/2000/svg" viewBox="0 0 24 24" width="480" height="480">
  <path d="M12 0C5.363281 0 0 5.363281 0 12C0 18.636719 5.363281 24 12 24C18.636719 24 24 18.636719 24 12C24 5.363281 18.636719 0 12 0 Z M 12 2C17.566406 2 22 6.433594 22 12C22 17.566406 17.566406 22 12 22C6.433594 22 2 17.566406 2 12C2 6.433594 6.433594 2 12 2 Z M 8 8C6.894531 8 6 8.894531 6 10C6 11.105469 6.894531 12 8 12C9.105469 12 10 11.105469 10 10C10 8.894531 9.105469 8 8 8 Z M 16 9C14.101563 9 13 11 13 11L19 11C19 11 17.898438 9 16 9 Z M 17.0625 13.65625C17.0625 13.65625 15.90625 17 12 17C9.808594 17 8.75 15.75 8.75 15.75L7.25 17.0625C7.25 17.0625 8.988281 19 12 19C17.09375 19 18.9375 14.34375 18.9375 14.34375Z" fill="#FFFFFF" />
</svg>